<svg xmlns="http://www.w3.org/2000/svg" shape-rendering="geometricPrecision" text-rendering="geometricPrecision" image-rendering="optimizeQuality" fill-rule="evenodd" clip-rule="evenodd" viewBox="0 0 512 511.992"><path fill-rule="nonzero" d="M255.998.004C114.617.004 0 114.616 0 255.998c0 141.385 114.617 255.994 255.998 255.994C397.395 511.992 512 397.387 512 255.998 512 114.624 397.395.015 255.994.015l.004-.015v.004zm117.4 369.22c-4.585 7.519-14.426 9.907-21.949 5.288-60.104-36.715-135.771-45.028-224.882-24.669-8.587 1.955-17.146-3.425-19.104-12.015-1.966-8.59 3.394-17.149 12.004-19.104 97.517-22.28 181.164-12.687 248.644 28.551 7.523 4.615 9.907 14.427 5.287 21.949zm31.335-69.704c-5.779 9.389-18.067 12.353-27.452 6.578-68.813-42.297-173.703-54.547-255.096-29.837-10.556 3.188-21.704-2.761-24.906-13.298-3.18-10.556 2.772-21.68 13.309-24.89 92.971-28.209 208.551-14.546 287.575 34.015 9.385 5.778 12.349 18.066 6.574 27.44v-.004l-.004-.004zm2.692-72.583c-82.51-49.006-218.635-53.511-297.409-29.603-12.649 3.836-26.027-3.302-29.859-15.955-3.833-12.657 3.302-26.024 15.959-29.868 90.428-27.452 240.753-22.149 335.747 34.245 11.401 6.755 15.133 21.447 8.375 32.809-6.728 11.378-21.462 15.13-32.802 8.372h-.011z"/></svg>